<svg id="Layer_1" enable-background="new 0 0 512 512" height="512" viewBox="0 0 512 512" width="512" xmlns="http://www.w3.org/2000/svg"><g opacity=".98"><path d="m352.4 512h-192.8c-88.004 0-159.6-71.596-159.6-159.6v-192.8c0-88.004 71.596-159.6 159.6-159.6h192.8c88.004 0 159.6 71.596 159.6 159.6v192.8c0 88.004-71.596 159.6-159.6 159.6z" fill="#ffeb4b"/><path d="m512 352.4v-192.8c0-88.004-71.596-159.6-159.6-159.6h-96.4v512h96.4c88.004 0 159.6-71.596 159.6-159.6z" fill="#ffbe00"/><path d="m395.158 165.097-32.115-32.105c-5.856-5.861-15.354-5.864-21.213-.009l-32.142 32.114c-5.86 5.855-5.864 15.353-.009 21.213 5.856 5.861 15.354 5.864 21.213.009l21.531-21.512 21.531 21.512c5.86 5.855 15.357 5.852 21.213-.009 5.855-5.86 5.851-15.358-.009-21.213z" fill="#0a1e28"/><path d="m485.358 270.53c-12.983-7.507-27.894-8.896-41.332-5.063-3.382-13.559-12.024-25.789-25.007-33.296-25.452-14.729-58.149-6.003-72.882 19.456-6.734 11.628-14.459 35.694-1.93 88.344 6.627 27.85 15.794 50.735 16.181 51.695 2.795 6.929 9.767 10.116 15.992 9.243 1.025-.144 25.431-3.613 52.874-11.763 51.881-15.408 68.884-34.109 75.603-45.746 14.713-25.469 5.964-58.16-19.499-72.87z" fill="#f02864"/><path d="m245.334 395.113c-5.855-5.86-5.851-15.358.009-21.213l21.53-21.512-21.512-21.53c-5.855-5.86-5.851-15.358.009-21.213l21.53-21.512-21.512-21.531c-5.855-5.86-5.851-15.358.009-21.213s15.358-5.851 21.213.009l32.114 32.142c5.855 5.86 5.851 15.358-.009 21.213l-21.53 21.512 21.512 21.531c2.812 2.814 4.391 6.63 4.389 10.608-.001 3.979-1.583 7.793-4.398 10.605l-32.142 32.114c-5.858 5.855-15.356 5.851-21.212-.01z" fill="#0a1e28"/><path d="m376.38 400.911c1.025-.144 25.431-3.613 52.874-11.763 51.881-15.408 68.884-34.109 75.603-45.746 14.714-25.47 5.965-58.161-19.498-72.871-12.983-7.507-27.894-8.896-41.332-5.063l-77.218 133.575c2.937 1.676 6.351 2.319 9.571 1.868z" fill="#b30000"/><circle cx="159.6" cy="159.6" fill="#1e4650" r="47.133"/></g></svg>